{"title":"[ShepardTDS] The World God Only Knows II [720p 8-bit x265 HEVC]","uid":12954791,"size":2110320900,"categoryP":"video","categoryS":"tv_shows","magnet":"?xt=urn:btih:184e5dd2c2e2789f3445ffa60323e3c47943ab62&amp;dn=%5BShepardTDS%5D+The+World+God+Only+Knows+II+%5B720p+8-bit+x265+HEVC%5D+&amp;tr=udp%3A%2F%2Ftracker.leechers-paradise.org%3A6969&amp;tr=udp%3A%2F%2Fzer0day.ch%3A1337&amp;tr=udp%3A%2F%2Fopen.demonii.com%3A1337&amp;tr=udp%3A%2F%2Ftracker.coppersurfer.tk%3A6969&amp;tr=udp%3A%2F%2Fexodus.desync.com%3A6969","seeders":1,"leechers":0,"uploader":"ShepardTDS","files":13,"time":1449770230,"description":"http://extraimago.com/images/2015/12/10/45378_front.jpg\r\n\r\nConstant Quality encoding.\r\nVariable Bit rates\r\nBlu Ray source\r\n \nhttp://extraimago.com/images/2015/12/10/sample1.jpg\r\n \nhttp://extraimago.com/images/2015/12/10/sample2.jpg\r\n\r\nGeneral\r\n\r\nFormat : Matroska\r\nFile size : 150 MiB-196 MiB\r\nDuration : 23mn 38s\r\nOverall bit rate : 888 Kbps-1,170 Kbps\r\nEncoded date : UTC 2015-12-09 08:51:02\r\nWriting application : mkvmerge v8.5.2 ('Crosses') 32bit\r\nWriting library : libebml v1.3.3 + libmatroska v1.4.4\r\n\r\nVideo\r\nID : 1\r\nFormat : V_MPEGH/ISO/HEVC\r\nCodec ID : V_MPEGH/ISO/HEVC\r\nDuration : 23mn 38s\r\nBit rate : 486 Kbps-762 Kbps\r\nWidth : 1 280 pixels\r\nHeight : 720 pixels\r\nDisplay aspect ratio : 16:9\r\nFrame rate : 23.976 fps\r\nBits/(Pixel*Frame) : 0.022\r\nStream size : 82.2 MiB (55%)\r\n\r\nAudio #1\r\nID : 2\r\nFormat : AC-3\r\nFormat/Info : Audio Coding 3\r\nMode extension : CM (complete main)\r\nCodec ID : A_AC3\r\nDuration : 23mn 38s\r\nBit rate mode : Constant\r\nBit rate : 192 Kbps\r\nChannel(s) : 2 channels\r\nChannel positions : Front: L R\r\nSampling rate : 48.0 KHz\r\nBit depth : 16 bits\r\nCompression mode : Lossy\r\nStream size : 32.5 MiB (22%)\r\nLanguage : English\r\n\r\nAudio #2\r\nID : 3\r\nFormat : AC-3\r\nFormat/Info : Audio Coding 3\r\nMode extension : CM (complete main)\r\nCodec ID : A_AC3\r\nDuration : 23mn 38s\r\nBit rate mode : Constant\r\nBit rate : 192 Kbps\r\nChannel(s) : 2 channels\r\nChannel positions : Front: L R\r\nSampling rate : 48.0 KHz\r\nBit depth : 16 bits\r\nCompression mode : Lossy\r\nStream size : 32.5 MiB (22%)\r\nLanguage : Japanese\r\n\r\nText #1\r\nID : 4\r\nFormat : ASS\r\nCodec ID : S_TEXT/ASS\r\nCodec ID/Info : Advanced Sub Station Alpha\r\nCompression mode : Lossless\r\nTitle : English Lyrics/Signs\r\nLanguage : English\r\n\r\nText #2\r\nID : 5\r\nFormat : ASS\r\nCodec ID : S_TEXT/ASS\r\nCodec ID/Info : Advanced Sub Station Alpha\r\nCompression mode : Lossless\r\nTitle : English Subtitles\r\nLanguage : English\r\n\r\nMenu\r\n00:00:00.000 : en:Part A\r\n00:00:40.040 : en:Opening\r\n00:02:10.297 : en:Part B\r\n00:19:16.530 : en:Ending\r\n00:23:20.774 : en:Preview","torrent":{"xt":"urn:btih:184e5dd2c2e2789f3445ffa60323e3c47943ab62","amp;dn":"%5BShepardTDS%5D+The+World+God+Only+Knows+II+%5B720p+8-bit+x265+HEVC%5D+","amp;tr":["udp%3A%2F%2Ftracker.leechers-paradise.org%3A6969","udp%3A%2F%2Fzer0day.ch%3A1337","udp%3A%2F%2Fopen.demonii.com%3A1337","udp%3A%2F%2Ftracker.coppersurfer.tk%3A6969","udp%3A%2F%2Fexodus.desync.com%3A6969"],"infoHash":"184e5dd2c2e2789f3445ffa60323e3c47943ab62","infoHashBuffer":{"type":"Buffer","data":[24,78,93,210,194,226,120,159,52,69,255,166,3,35,227,196,121,67,171,98]},"announce":[],"urlList":[]}}